<svg width="487" height="292" viewBox="0 0 487 292" fill="none" xmlns="http://www.w3.org/2000/svg"><path d="M174.262 236.536c-3.465 14.955-4.873 35.937 11.589 43.526 3.249 1.451 6.714 2.12 10.18 2.12H430.94c3.033 0 5.957-.892 8.556-2.566 12.13-8.036 45.487-36.495 46.462-108.257 1.191-94.528-23.068-91.18-66.606-87.163-43.538 4.018-89.35 78.793-133.971 95.087-37.581 13.728-67.473 1.005-92.599 24.107-9.314 8.593-15.596 20.312-18.52 33.146z" fill="#fff" stroke="#111" stroke-width="2" stroke-miterlimit="10" stroke-linecap="round" stroke-linejoin="round"/><path d="M256.139 42.456l26.318 42.41c1.191 2.009 3.682 2.902 5.848 2.232l5.416-1.785c1.516-.447 2.166-2.344 1.299-3.683l-25.234-40.401c-.867-1.451-2.491-2.344-4.224-2.455l-7.365-.112c-1.841 0-3.032 2.12-2.058 3.794z" fill="#111" stroke="#111" stroke-width="2" stroke-miterlimit="10" stroke-linecap="round" stroke-linejoin="round"/><path d="M200.471 175.824l-24.909-29.352 22.202-2.79 16.787 28.012-14.08 4.13z" fill="#fff" stroke="#111" stroke-width="2" stroke-miterlimit="10" stroke-linecap="round" stroke-linejoin="round"/><path d="M270.218 103.392s-1.516 9.152-1.516 13.281c0 1.563 2.924 3.014 2.924 4.576v5.469s10.397-3.014 24.693-21.205c18.845-23.883 25.993-27.343 36.607-29.687 0 0-18.953 85.154-77.329 92.743 0 0-19.927-19.642-18.519-35.713 0 0 5.523-12.946 11.588-19.531 6.498-7.142 9.856-14.62 9.856-14.62s4.873 1.005 11.696 4.687z" fill="#5DD5EF" stroke="#5DD5EF" stroke-width="2" stroke-miterlimit="10" stroke-linecap="round" stroke-linejoin="round"/><path d="M98.124 238.545s-31.84 34.151-91.732 36.383l-1.083 6.473c5.415 2.232 12.888 6.696 33.574 5.915 3.574-.111 7.256 0 10.83.447 3.574.446 8.664.892 13.646.892 3.9 0 7.256-3.124 7.69-7.142l.325-2.902c.108-1.116.758-2.232 1.733-2.79 6.498-4.129 32.382-20.424 45.92-26.785l-20.903-10.491z" fill="#fff" stroke="#111" stroke-width="2" stroke-miterlimit="10" stroke-linecap="round" stroke-linejoin="round"/><path d="M129.641 282.182h351.768" stroke="#111" stroke-width="2" stroke-miterlimit="10" stroke-linecap="round" stroke-linejoin="round"/><path d="M206.97 154.284s46.895 34.374 92.166 8.482c0 0-17.654-16.964-29.459-11.83a1.48 1.48 0 01-1.624-.335c-6.39-6.808-53.177-54.016-110.686-59.15-3.574-.335-7.148.446-10.18 2.344-2.167 1.339-4.766 3.124-7.04 5.58-3.682 3.906-3.899 10.044-.542 14.285 8.231 10.714 25.343 33.705 30.975 46.427-.108-.111 14.729-1.45 36.39-5.803z" fill="#111" stroke="#111" stroke-width="2" stroke-miterlimit="10" stroke-linecap="round" stroke-linejoin="round"/><path d="M352.637 162.654s-90.108-6.138-161.155 4.13c-3.79.558-7.364 2.232-10.289 4.799-13.321 11.606-54.801 46.762-94.115 70.533 0 0 9.098 12.277 25.235 15.848 0 0 35.523-18.303 50.469-27.008 18.845-10.937 34.007-28.347 34.007-28.347s24.801 5.468 52.094-1.451c0 0 19.928-7.255 67.581-3.572.108.112 22.852-3.125 36.173-34.932z" fill="#111" stroke="#111" stroke-width="2" stroke-miterlimit="10" stroke-linecap="round" stroke-linejoin="round"/><path d="M325.778 160.869s-22.419 5.468-4.874 18.861c0 0-9.747 6.808-39.964 2.79-30.216-4.018-55.667 3.683-64.981 4.352-9.314.67-13.755.447-14.188 2.233-.433 1.785-10.397-2.009-13.105 0-2.707 2.008 0 7.031-4.873 9.374-4.874 2.344-12.455-1.116-23.935 13.728-11.48 14.843-41.913 36.159-60 40.958" stroke="#fff" stroke-width="2" stroke-miterlimit="10" stroke-linecap="round" stroke-linejoin="round"/><path d="M166.031 156.07l38.989-3.907c.325 0 .65.112.866.335l1.625 1.674c.65.67.325 1.674-.541 1.898-6.282 1.227-25.668 5.133-36.715 6.026-1.841.112-3.682-.893-4.441-2.678l-.758-1.786c-.216-.781.217-1.562.975-1.562z" fill="#fff" stroke="#111" stroke-width="2" stroke-miterlimit="10" stroke-linecap="round" stroke-linejoin="round"/><path d="M192.457 153.391s-1.841-7.477-4.874-9.71c-3.032-2.232-14.404-10.267-15.704-16.405-1.407-6.139-4.332-5.023-8.122-9.487-3.791-4.464 10.613 2.009 15.487 8.929 4.874 7.031-8.664-13.17-6.823-16.518 1.949-3.348 10.722 17.522 13.538 19.531 2.816 2.009-1.083-7.812 3.249-3.683 4.332 4.241 4.007 7.924 18.736 10.937 14.73 3.014 27.184 19.866 31.517 20.089 4.332.335 1.083-6.361 12.779 4.464" stroke="#fff" stroke-width="2" stroke-miterlimit="10" stroke-linecap="round" stroke-linejoin="round"/><path d="M80.58 242.005c1.191-1.004 2.599-2.344 3.899-4.018.758-1.004 2.274-1.004 3.14-.111 4.224 4.464 15.704 15.624 26.426 19.307 1.733.558 2.491 2.679 1.408 4.241l-.108.112c-.65.893-1.733 1.339-2.816 1.116-4.224-1.005-15.812-4.576-31.84-16.183-1.409-1.227-1.517-3.348-.11-4.464zM393.512 169.481c-30.866-9.487-89.133 5.245-86.642 34.374.216 2.567.758 4.799 1.624 6.808 9.639 17.075 17.654 16.071 27.943 26.227.758.669 1.732.893 2.707.669 2.274-.669 3.033-3.571 1.408-5.468-.975-1.116-2.274-2.456-4.115-4.018 6.931 1.116 13.754.558 18.628-1.339-6.065 17.745 3.465 23.883 10.613 23.883 3.683 0 4.982-2.567 4.982-5.134-.108-10.491 14.946-15.178 37.798-24.888 25.884-10.937 15.921-41.628-14.946-51.114zM367.583 51.496l2.491-1.004s-1.083-1.897 0-3.571c1.083-1.674 9.422-8.37 2.166-14.063-5.198-4.017-11.48-2.232-11.48-2.232s.325 16.183 6.823 20.87z" fill="#fff" stroke="#111" stroke-width="2" stroke-miterlimit="10" stroke-linecap="round" stroke-linejoin="round"/><path d="M404.081 148.592c-10.289 1.897-19.495 4.576-25.126 6.473-3.466 1.116-6.39 3.237-8.773 6.138-5.307 6.25-13.863 10.714-18.195 12.947-3.899 2.008-7.148 4.91-9.747 8.593-1.624 2.344-3.141 4.799-4.115 6.25-.867 1.339.433 3.013 1.949 2.455.325-.111.542-.335.758-.669 6.498-9.933 12.563-10.045 12.563-10.045-2.491 3.237-4.224 11.049-5.307 15.178-.325 1.116.542 2.121 1.625 2.121.541 0 1.083-.335 1.3-.781.433-.67 1.083-1.116 1.841-1.228l.65-.112c1.083-.223 1.949-.892 2.491-1.897 3.14-5.468 11.48-15.624 11.48-15.624s-1.733 3.124-2.275 4.798c-.433 1.228-1.949 6.474-2.816 9.598-.325 1.005.217 2.009 1.192 2.233.758.111 1.516-.224 1.841-.893 1.3-2.79 2.924-7.255 3.574-8.482.975-1.563 2.816-4.241 6.931-8.036 8.015-7.589 9.206-11.049 9.206-11.049 5.307-1.785 26.751-3.348 26.751-3.348l-7.798-14.62z" fill="#fff" stroke="#111" stroke-width="2" stroke-miterlimit="10" stroke-linecap="round" stroke-linejoin="round"/><path d="M289.172 140.557c-4.765 5.357-3.682 13.95 2.274 17.968 3.899 2.567 8.989 4.687 15.379 4.799 14.188.335 28.267-.67 44.188 3.236 6.173 1.451 12.455-1.339 15.487-7.031 5.415-10.49 13.206-30.038 17.307-46.9 0 0 19.191-.42 44.967 24.133 0 0-19.602-2.567-20.252 5.357-.325 3.795-6.282 5.245-11.914 7.031 0 0 7.69 12.388 10.614 15.848 0 0 12.563-1.339 28.375 2.567 5.307 1.339 10.831 1.339 16.029 0 5.632-1.451 12.672-3.906 17.654-7.589 2.057-1.563 2.924-4.353 2.274-6.92-2.708-10.937-14.296-42.298-59.567-72.766 0 0-2.599-7.03-5.198-11.049a6.048 6.048 0 00-4.332-2.79c-4.224-.558-13.971-1.45-20.794.335 0 0-20.145 6.808-45.921 8.594 0 0-6.823 0-12.888 9.374-5.632 8.706-7.256 26.004-33.682 55.803z" fill="#5DD5EF" stroke="#5DD5EF" stroke-width="2" stroke-miterlimit="10" stroke-linecap="round" stroke-linejoin="round"/><path d="M330.805 204.189s3.682-5.915 8.339-8.147c4.658-2.12 2.708 5.134 3.466 6.808 0 0 6.282-1.897 7.473-1.785 1.191.111 1.95-3.572 5.957-5.357 4.115-1.674 1.624 4.129 3.574 9.151 1.841 5.022 6.606 10.044-1.625 18.973 0 0 6.173-11.384 25.993-15.29 19.819-3.906-.433 0-.433 0s-13.863-4.687-11.914-17.968c1.95-13.281 18.953-11.942 27.076-9.375" stroke="#111" stroke-width="2" stroke-miterlimit="10" stroke-linecap="round" stroke-linejoin="round"/><path d="M339.794 216.354s.65-3.571 3.465-3.794c2.816-.223 3.032 3.013 3.032 3.013M352.574 214.68s.541-3.571 2.815-3.794c2.274-.223 2.383 3.013 2.383 3.013" stroke="#111" stroke-width="2" stroke-miterlimit="10" stroke-linecap="round" stroke-linejoin="round"/><path d="M364.767 34.533c3.141 29.575 9.747 30.468 16.679 34.262 0 0-14.621 8.817-29.567 8.482 0 0 5.307-3.571.975-8.928-.867-1.116-1.517-2.456-1.625-3.907l-2.599-23.101 16.137-6.808z" fill="#fff" stroke="#111" stroke-width="2" stroke-miterlimit="10" stroke-linecap="round" stroke-linejoin="round"/><path d="M350.949 220.707s-2.165-.669-1.516-1.116c.65-.446 4.007-.669 1.516 1.116z" stroke="#111" stroke-width="2" stroke-miterlimit="10" stroke-linecap="round" stroke-linejoin="round"/><path d="M253.432 112.098s9.205 1.897 16.787 5.58M411.878 80.29s-10.505-6.808-18.519-7.7c-6.823-.782-14.513 6.696-20.686 8.481M431.806 137.766s8.556 3.683 16.029 2.679c7.473-1.004-16.029-2.679-16.029-2.679z" stroke="#fff" stroke-width="2" stroke-miterlimit="10" stroke-linecap="round" stroke-linejoin="round"/><path d="M357.078 85.313s-5.307 22.209-16.029 37.722c-10.83 15.513-10.83 20.647-10.83 20.647h1.949s7.148-16.518 12.238-28.794c5.199-12.277 4.874-17.634 12.672-29.576zM342.24 84.197s-4.224 13.615-17.112 27.901c-12.888 14.285-12.888 21.539-12.888 21.539l2.491.558c3.899-14.062 11.805-25.669 16.462-32.588 6.498-9.933 11.047-17.41 11.047-17.41z" fill="#fff" stroke="#fff" stroke-width="2" stroke-miterlimit="10" stroke-linecap="round" stroke-linejoin="round"/><path d="M343.323 66.786c1.949 0 3.791-.558 5.307-1.785a46.871 46.871 0 009.531-9.598c2.382-3.125 3.574-7.032 3.357-11.05a19.012 19.012 0 01.108-4.24s.975.67 2.166.335c2.275-.67 4.332-3.683 2.6-9.598l-34.657-8.706s-1.517 21.317 9.205 43.08a2.593 2.593 0 002.383 1.562z" fill="#fff" stroke="#111" stroke-width="2" stroke-miterlimit="10" stroke-linecap="round" stroke-linejoin="round"/><path d="M339.857 23.484s3.574 7.031 12.13 10.825c8.556 3.683 12.78-3.124 12.78-3.124l-24.91-7.701z" fill="#fff" stroke="#111" stroke-width="2" stroke-miterlimit="10" stroke-linecap="round" stroke-linejoin="round"/><path d="M335.417 23.707s4.657 10.044 13.321 10.156l.974-2.009s-6.498-2.232-7.581-6.92l-6.714-1.227zM49.93 264.772s1.083 1.563 1.083 5.246c0 3.459 2.166 6.696 5.307 7.924 3.466 1.451 8.34 2.232 14.188 0 .975-.335 1.95.334 1.95 1.451l-.434 9.263c-.108 1.004-.975 1.785-1.95 1.897-2.815.335-10.18.558-28.808-.67-24.693-1.674-35.09-5.915-39.422-8.928-.758-.558-1.083-1.786-.65-2.567 1.191-2.232 4.007-6.027 10.289-5.915 3.574.112 7.148 0 10.722-.67 7.798-1.45 19.928-3.906 27.725-7.031z" fill="#fff" stroke="#111" stroke-width="2" stroke-miterlimit="10" stroke-linecap="round" stroke-linejoin="round"/><path d="M167.115 112.879s5.306 3.46 13.104 15.178c7.798 11.83 16.787 16.517 20.253 18.415 3.79 2.12 5.307 4.241 4.549 5.691" stroke="#fff" stroke-width="2" stroke-miterlimit="10" stroke-linecap="round" stroke-linejoin="round"/><path d="M329.244 22.256l65.848 16.406c.975.223 1.408-1.116.433-1.45l-24.043-8.483s.975-5.245-2.166-17.745c0 0-10.072-14.955-35.848-8.259 0 0-4.657 3.348-4.224 19.531z" fill="#111" stroke="#111" stroke-width="2" stroke-miterlimit="10" stroke-linecap="round" stroke-linejoin="round"/><path d="M341.265 20.805s-4.223-11.16-11.047-11.607c-6.931-.446-3.574 8.706-1.624 10.603 1.841 1.897 6.065-3.46 12.671 1.004z" fill="#fff" stroke="#111" stroke-width="2" stroke-miterlimit="10" stroke-linecap="round" stroke-linejoin="round"/><path d="M275.634 145.021s2.274-5.469-3.574-18.973c0 0 .324 4.018 4.657 7.031 4.332 3.013 4.982 5.692 5.198 6.696M431.806 137.766s11.589 3.349 20.145 9.822M196.789 202.72s-14.621-4.018-15.596-7.812c-1.083-3.795 8.556 5.357 15.596 7.812zM178.269 206.961s9.748-.446 18.52-4.241" stroke="#fff" stroke-width="2" stroke-miterlimit="10" stroke-linecap="round" stroke-linejoin="round"/><path d="M14.082 272.361s3.682 4.13 4.549 10.156c0 0 18.736 5.246 36.823 3.014 18.195-2.344 16.787-1.563 16.787-1.563" stroke="#111" stroke-width="2" stroke-miterlimit="10" stroke-linecap="round" stroke-linejoin="round"/><path d="M27.295 275.375s-2.166-4.911-2.274-6.139c-.108-1.116 7.69 4.241 9.747 4.576 2.058.335-.541-6.25.325-7.142.866-.893 6.498 5.468 8.99 6.026 2.49.447-.867-8.482-.867-8.482" stroke="#111" stroke-width="2" stroke-miterlimit="10" stroke-linecap="round" stroke-linejoin="round"/><path d="M218.883 219.126s9.531-11.049 31.408-18.191l-31.408 18.191z" fill="#fff"/><path d="M218.883 219.126s9.531-11.049 31.408-18.191" stroke="#111" stroke-width="2" stroke-miterlimit="10" stroke-linecap="round" stroke-linejoin="round"/><path d="M200.364 220.689s13.321-16.63 43.429-17.969l-43.429 17.969z" fill="#fff"/><path d="M200.364 220.689s13.321-16.63 43.429-17.969M144.061 22.628v17.299M151.318 26.87l-14.513 8.704M136.805 26.87l14.513 8.704M172.545 22.628v17.299M179.91 26.87l-14.621 8.704M165.289 26.87l14.621 8.704M201.137 22.628v17.299M208.393 26.87l-14.621 8.704M193.772 26.87l14.621 8.704M221.715 11.914V50.53" stroke="#111" stroke-width="2" stroke-miterlimit="10" stroke-linecap="round" stroke-linejoin="round"/><path d="M351.987 87.88s-11.913-2.233-12.346-10.603c0 0 .433-3.571 10.072-4.687M286.139 149.373s-1.299-5.133 6.174-13.504c7.472-8.37 20.685-22.432 23.935-36.383 0 0-1.408 0-4.008 10.268 0 0-1.949-2.121-2.382-6.362" stroke="#fff" stroke-width="2" stroke-miterlimit="10" stroke-linecap="round" stroke-linejoin="round"/><path d="M287.872 67.567c-.217-.334-.542-.558-.867-.558-5.523-.558-8.339 2.567-8.664 3.572-.108-6.585 4.549-6.808 6.498-6.697.542 0 1.083-.334 1.192-.892v-.112c.216-.893-.325-2.009-1.192-2.344l-3.249-1.227a4.224 4.224 0 00-2.491-3.237c-2.816-1.116-7.581-2.344-9.639-.111-2.166 2.343-1.516 6.25-1.516 6.25-1.3-2.567-2.707-5.023-5.198-9.264-.325-.67-1.3-.335-1.3.335.65 11.272 7.581 19.196 9.422 23.772.434 1.116.325 2.455-.325 3.46-5.523 9.374-10.613 18.75-10.613 18.75l9.422 4.017c8.123-17.745 11.913-19.085 12.022-21.317v-.78c-1.517-8.706 3.357-11.161 5.956-11.942.65-.112.975-1.005.542-1.675z" fill="#fff" stroke="#111" stroke-width="2" stroke-miterlimit="10" stroke-linecap="round" stroke-linejoin="round"/></svg>